<?xml version="1.0" encoding="UTF-8" standalone="no"?>
<!-- Created with Inkscape (http://www.inkscape.org/) -->

<svg
   xmlns:dc="http://purl.org/dc/elements/1.1/"
   xmlns:cc="http://creativecommons.org/ns#"
   xmlns:rdf="http://www.w3.org/1999/02/22-rdf-syntax-ns#"
   xmlns:svg="http://www.w3.org/2000/svg"
   xmlns="http://www.w3.org/2000/svg"
   xmlns:sodipodi="http://sodipodi.sourceforge.net/DTD/sodipodi-0.dtd"
   xmlns:inkscape="http://www.inkscape.org/namespaces/inkscape"
   width="188.21129mm"
   height="183.91772mm"
   viewBox="0 0 666.89039 651.67697"
   id="svg2"
   version="1.1"
   inkscape:version="0.91 r13725"
   sodipodi:docname="drawing.svg">
  <defs
     id="defs4">
    <clipPath
       clipPathUnits="userSpaceOnUse"
       id="clipPath4372">
      <rect
         style="fill:#a25200;fill-opacity:1"
         id="rect4374"
         width="104.2868"
         height="94.736732"
         x="-1.9933994"
         y="-1.1467133" />
    </clipPath>
  </defs>
  <sodipodi:namedview
     id="base"
     pagecolor="#ffffff"
     bordercolor="#666666"
     borderopacity="1.0"
     inkscape:pageopacity="0.0"
     inkscape:pageshadow="2"
     inkscape:zoom="0.35"
     inkscape:cx="390.80181"
     inkscape:cy="277.99085"
     inkscape:document-units="px"
     inkscape:current-layer="layer1"
     showgrid="false"
     inkscape:window-width="1916"
     inkscape:window-height="1035"
     inkscape:window-x="4"
     inkscape:window-y="1"
     inkscape:window-maximized="1"
     fit-margin-top="20"
     fit-margin-left="20"
     fit-margin-right="20"
     fit-margin-bottom="20" />
  <metadata
     id="metadata7">
    <rdf:RDF>
      <cc:Work
         rdf:about="">
        <dc:format>image/svg+xml</dc:format>
        <dc:type
           rdf:resource="http://purl.org/dc/dcmitype/StillImage" />
        <dc:title></dc:title>
      </cc:Work>
    </rdf:RDF>
  </metadata>
  <g
     inkscape:label="Layer 1"
     inkscape:groupmode="layer"
     id="layer1"
     transform="translate(-53.353922,-149.9893)">
    <text
       xml:space="preserve"
       style="font-style:normal;font-variant:normal;font-weight:900;font-stretch:normal;font-size:205.60545349px;line-height:125%;font-family:Avenir;-inkscape-font-specification:'Avenir, Heavy';text-align:start;letter-spacing:0px;word-spacing:0px;writing-mode:lr-tb;text-anchor:start;fill:#000000;fill-opacity:1;stroke:none;stroke-width:1px;stroke-linecap:butt;stroke-linejoin:miter;stroke-opacity:1"
       x="115.17342"
       y="728.33289"
       id="text3336"
       sodipodi:linespacing="125%"><tspan
         sodipodi:role="line"
         id="tspan3338"
         x="115.17342"
         y="728.33289"
         style="font-style:normal;font-variant:normal;font-weight:900;font-stretch:normal;font-size:205.60545349px;line-height:125%;font-family:Avenir;-inkscape-font-specification:'Avenir, Heavy';text-align:start;writing-mode:lr-tb;text-anchor:start;fill:#ef7900;fill-opacity:1">corral</tspan></text>
    <flowRoot
       xml:space="preserve"
       id="flowRoot3340"
       style="font-style:normal;font-weight:normal;font-size:40px;line-height:125%;font-family:sans-serif;letter-spacing:0px;word-spacing:0px;fill:#000000;fill-opacity:1;stroke:none;stroke-width:1px;stroke-linecap:butt;stroke-linejoin:miter;stroke-opacity:1"><flowRegion
         id="flowRegion3342"><rect
           id="rect3344"
           width="194.28572"
           height="245.71428"
           x="122.85714"
           y="218.07649" /></flowRegion><flowPara
         id="flowPara3346"></flowPara></flowRoot>    <flowRoot
       xml:space="preserve"
       id="flowRoot3348"
       style="font-style:normal;font-weight:normal;font-size:40px;line-height:125%;font-family:sans-serif;letter-spacing:0px;word-spacing:0px;fill:#000000;fill-opacity:1;stroke:none;stroke-width:1px;stroke-linecap:butt;stroke-linejoin:miter;stroke-opacity:1"><flowRegion
         id="flowRegion3350"><rect
           id="rect3352"
           width="391.42856"
           height="402.85715"
           x="51.42857"
           y="595.21936" /></flowRegion><flowPara
         id="flowPara3354"></flowPara></flowRoot>    <flowRoot
       xml:space="preserve"
       id="flowRoot4156"
       style="font-style:normal;font-weight:normal;font-size:40px;line-height:125%;font-family:sans-serif;letter-spacing:0px;word-spacing:0px;fill:#000000;fill-opacity:1;stroke:none;stroke-width:1px;stroke-linecap:butt;stroke-linejoin:miter;stroke-opacity:1"><flowRegion
         id="flowRegion4158"><rect
           id="rect4160"
           width="591.42859"
           height="348.57144"
           x="68.571426"
           y="566.64795" /></flowRegion><flowPara
         id="flowPara4162"></flowPara></flowRoot>    <g
       id="g4266"
       transform="matrix(5.2887162,0,0,5.2887162,125.02406,149.45777)"
       style="fill:#a25200;fill-opacity:1"
       clip-path="url(#clipPath4372)">
      <g
         id="g4236"
         style="fill:#a25200;fill-opacity:1">
        <path
           id="path4238"
           d="m 95,36.5 c 0.8,0 1.5,-0.7 1.5,-1.5 l 0,-5 c 0,-0.8 -0.7,-1.5 -1.5,-1.5 l -8.5,0 0,-3.5 c 0,-0.2 -0.1,-0.5 -0.2,-0.7 l -5,-10 C 81,13.8 80.5,13.5 80,13.5 c -0.5,0 -1.1,0.3 -1.3,0.8 l -5,10 c -0.1,0.2 -0.2,0.4 -0.2,0.7 l 0,3.5 -7,0 0,-3.5 c 0,-0.2 -0.1,-0.5 -0.2,-0.7 l -5,-10 C 61,13.8 60.5,13.5 60,13.5 c -0.5,0 -1.1,0.3 -1.3,0.8 l -5,10 c -0.1,0.2 -0.2,0.4 -0.2,0.7 l 0,3.5 -7,0 0,-3.5 c 0,-0.2 -0.1,-0.5 -0.2,-0.7 l -5,-10 C 41,13.8 40.5,13.5 40,13.5 c -0.5,0 -1.1,0.3 -1.3,0.8 l -5,10 c -0.1,0.2 -0.2,0.4 -0.2,0.7 l 0,3.5 -7,0 0,-3.5 c 0,-0.2 -0.1,-0.5 -0.2,-0.7 l -5,-10 C 21,13.8 20.5,13.5 20,13.5 c -0.5,0 -1.1,0.3 -1.3,0.8 l -5,10 c -0.1,0.2 -0.2,0.4 -0.2,0.7 l 0,3.5 -8.5,0 c -0.8,0 -1.5,0.7 -1.5,1.5 l 0,5 c 0,0.8 0.7,1.5 1.5,1.5 l 8.5,0 0,32 -8.5,0 c -0.8,0 -1.5,0.7 -1.5,1.5 l 0,5 c 0,0.8 0.7,1.5 1.5,1.5 l 8.5,0 0,8.5 c 0,0.8 0.7,1.5 1.5,1.5 l 10,0 c 0.8,0 1.5,-0.7 1.5,-1.5 l 0,-8.5 7,0 0,8.5 c 0,0.8 0.7,1.5 1.5,1.5 l 10,0 c 0.8,0 1.5,-0.7 1.5,-1.5 l 0,-8.5 7,0 0,8.5 c 0,0.8 0.7,1.5 1.5,1.5 l 10,0 c 0.8,0 1.5,-0.7 1.5,-1.5 l 0,-8.5 7,0 0,8.5 c 0,0.8 0.7,1.5 1.5,1.5 l 10,0 c 0.8,0 1.5,-0.7 1.5,-1.5 l 0,-8.5 8.5,0 c 0.8,0 1.5,-0.7 1.5,-1.5 l 0,-5 c 0,-0.8 -0.7,-1.5 -1.5,-1.5 l -8.5,0 0,-32 8.5,0 z m -1.5,-5 0,2 -7,0 0,-2 7,0 z m -27,5 7,0 0,32 -7,0 0,-32 z m 7,-5 0,2 -7,0 0,-2 7,0 z m -27,5 7,0 0,32 -7,0 0,-32 z m 7,-5 0,2 -7,0 0,-2 7,0 z m -27,5 7,0 0,32 -7,0 0,-32 z m 7,-5 0,2 -7,0 0,-2 7,0 z m -27,2 0,-2 7,0 0,2 -7,0 z m 0,40 0,-2 7,0 0,2 -7,0 z m 17,10 -7,0 0,-58.2 3.5,-7 3.5,7 0,58.2 z m 3,-10 0,-2 7,0 0,2 -7,0 z m 17,10 -7,0 0,-58.2 3.5,-7 3.5,7 0,58.2 z m 3,-10 0,-2 7,0 0,2 -7,0 z m 17,10 -7,0 0,-58.2 3.5,-7 3.5,7 0,58.2 z m 3,-10 0,-2 7,0 0,2 -7,0 z m 17,10 -7,0 0,-58.2 3.5,-7 3.5,7 0,58.2 z m 10,-12 0,2 -7,0 0,-2 7,0 z"
           inkscape:connector-curvature="0"
           style="fill:#a25200;fill-opacity:1" />
        <path
           id="path4240"
           d="m 20,31 c -0.8,0 -1.5,0.7 -1.5,1.5 0,0.8 0.7,1.5 1.5,1.5 0.8,0 1.5,-0.7 1.5,-1.5 l 0,0 C 21.5,31.7 20.8,31 20,31 Z"
           inkscape:connector-curvature="0"
           style="fill:#a25200;fill-opacity:1" />
        <path
           id="path4242"
           d="m 20,71.1 c -0.8,0 -1.5,0.7 -1.5,1.5 0,0.8 0.7,1.5 1.5,1.5 0.8,0 1.5,-0.7 1.5,-1.5 l 0,0 c 0,-0.9 -0.7,-1.5 -1.5,-1.5 z"
           inkscape:connector-curvature="0"
           style="fill:#a25200;fill-opacity:1" />
        <path
           id="path4244"
           d="m 40,31 c -0.8,0 -1.5,0.7 -1.5,1.5 0,0.8 0.7,1.5 1.5,1.5 0.8,0 1.5,-0.7 1.5,-1.5 l 0,0 C 41.5,31.7 40.8,31 40,31 Z"
           inkscape:connector-curvature="0"
           style="fill:#a25200;fill-opacity:1" />
        <path
           id="path4246"
           d="m 40,71.1 c -0.8,0 -1.5,0.7 -1.5,1.5 0,0.8 0.7,1.5 1.5,1.5 0.8,0 1.5,-0.7 1.5,-1.5 l 0,0 c 0,-0.9 -0.7,-1.5 -1.5,-1.5 z"
           inkscape:connector-curvature="0"
           style="fill:#a25200;fill-opacity:1" />
        <path
           id="path4248"
           d="m 60,31 c -0.8,0 -1.5,0.7 -1.5,1.5 0,0.8 0.7,1.5 1.5,1.5 0.8,0 1.5,-0.7 1.5,-1.5 l 0,0 C 61.5,31.7 60.8,31 60,31 Z"
           inkscape:connector-curvature="0"
           style="fill:#a25200;fill-opacity:1" />
        <path
           id="path4250"
           d="m 60,71.1 c -0.8,0 -1.5,0.7 -1.5,1.5 0,0.8 0.7,1.5 1.5,1.5 0.8,0 1.5,-0.7 1.5,-1.5 l 0,0 c 0,-0.9 -0.7,-1.5 -1.5,-1.5 z"
           inkscape:connector-curvature="0"
           style="fill:#a25200;fill-opacity:1" />
        <path
           id="path4252"
           d="m 80,31 c -0.8,0 -1.5,0.7 -1.5,1.5 0,0.8 0.7,1.5 1.5,1.5 0.8,0 1.5,-0.7 1.5,-1.5 l 0,0 C 81.5,31.7 80.9,31 80,31 Z"
           inkscape:connector-curvature="0"
           style="fill:#a25200;fill-opacity:1" />
        <path
           id="path4254"
           d="m 80,71.1 c -0.8,0 -1.5,0.7 -1.5,1.5 0,0.8 0.7,1.5 1.5,1.5 0.8,0 1.5,-0.7 1.5,-1.5 l 0,0 c 0,-0.9 -0.6,-1.5 -1.5,-1.5 z"
           inkscape:connector-curvature="0"
           style="fill:#a25200;fill-opacity:1" />
      </g>
      <g
         style="font-weight:bold;font-size:5px;font-family:'Helvetica Neue', Helvetica, Arial-Unicode, Arial, Sans-serif;fill:#a25200;fill-opacity:1"
         id="text4256">
        <path
           d="m 2.725,112.63 0.76,0 q -0.035,-0.31 -0.17,-0.55 -0.135,-0.24 -0.345,-0.4 -0.205,-0.165 -0.47,-0.25 -0.26,-0.085 -0.555,-0.085 -0.41,0 -0.74,0.145 -0.325,0.145 -0.55,0.4 -0.225,0.255 -0.345,0.6 -0.12,0.34 -0.12,0.74 0,0.39 0.12,0.73 0.12,0.335 0.345,0.585 0.225,0.25 0.55,0.395 0.33,0.14 0.74,0.14 0.33,0 0.605,-0.1 0.275,-0.1 0.48,-0.29 0.205,-0.19 0.33,-0.46 0.125,-0.27 0.155,-0.605 l -0.76,0 q -0.045,0.36 -0.25,0.58 -0.2,0.22 -0.56,0.22 -0.265,0 -0.45,-0.1 -0.185,-0.105 -0.3,-0.275 -0.115,-0.17 -0.17,-0.38 -0.05,-0.215 -0.05,-0.44 0,-0.235 0.05,-0.455 0.055,-0.22 0.17,-0.39 0.115,-0.175 0.3,-0.275 0.185,-0.105 0.45,-0.105 0.145,0 0.275,0.05 0.135,0.045 0.24,0.13 0.105,0.085 0.175,0.2 0.07,0.11 0.09,0.245 z"
           style="font-weight:bold;font-size:5px;font-family:'Helvetica Neue', Helvetica, Arial-Unicode, Arial, Sans-serif;fill:#a25200;fill-opacity:1"
           id="path4281"
           inkscape:connector-curvature="0" />
        <path
           d="m 3.9711719,112.415 0,2.585 0.71,0 0,-1.165 q 0,-0.175 0.035,-0.325 0.035,-0.15 0.115,-0.26 0.085,-0.115 0.22,-0.18 0.135,-0.065 0.33,-0.065 0.065,0 0.135,0.01 0.07,0.005 0.12,0.015 l 0,-0.66 q -0.085,-0.025 -0.155,-0.025 -0.135,0 -0.26,0.04 -0.125,0.04 -0.235,0.115 -0.11,0.07 -0.195,0.175 -0.085,0.1 -0.135,0.22 l -0.01,0 0,-0.48 -0.675,0 z"
           style="font-weight:bold;font-size:5px;font-family:'Helvetica Neue', Helvetica, Arial-Unicode, Arial, Sans-serif;fill:#a25200;fill-opacity:1"
           id="path4283"
           inkscape:connector-curvature="0" />
        <path
           d="m 7.5812891,113.43 -1.155,0 q 0.005,-0.075 0.03,-0.17 0.03,-0.095 0.095,-0.18 0.07,-0.085 0.18,-0.14 0.115,-0.06 0.285,-0.06 0.26,0 0.385,0.14 0.13,0.14 0.18,0.41 z m -1.155,0.45 1.865,0 q 0.02,-0.3 -0.05,-0.575 -0.07,-0.275 -0.23,-0.49 -0.155,-0.215 -0.4,-0.34 -0.245,-0.13 -0.575,-0.13 -0.295,0 -0.54,0.105 -0.24,0.105 -0.415,0.29 -0.175,0.18 -0.27,0.43 -0.095,0.25 -0.095,0.54 0,0.3 0.09,0.55 0.095,0.25 0.265,0.43 0.17,0.18 0.415,0.28 0.245,0.095 0.55,0.095 0.44,0 0.75,-0.2 0.31,-0.2 0.46,-0.665 l -0.625,0 q -0.035,0.12 -0.19,0.23 -0.155,0.105 -0.37,0.105 -0.3,0 -0.46,-0.155 -0.16,-0.155 -0.175,-0.5 z"
           style="font-weight:bold;font-size:5px;font-family:'Helvetica Neue', Helvetica, Arial-Unicode, Arial, Sans-serif;fill:#a25200;fill-opacity:1"
           id="path4285"
           inkscape:connector-curvature="0" />
        <path
           d="m 8.6872656,113.21 q 0.015,-0.25 0.125,-0.415 0.11,-0.165 0.28,-0.265 0.17,-0.1 0.38,-0.14 0.215,-0.045 0.43,-0.045 0.1950004,0 0.3950004,0.03 0.2,0.025 0.365,0.105 0.165,0.08 0.27,0.225 0.105,0.14 0.105,0.375 l 0,1.345 q 0,0.175 0.02,0.335 0.02,0.16 0.07,0.24 l -0.72,0 q -0.02,-0.06 -0.035,-0.12 -0.01,-0.065 -0.015,-0.13 -0.17,0.175 -0.4000004,0.245 -0.23,0.07 -0.47,0.07 -0.185,0 -0.345,-0.045 -0.16,-0.045 -0.28,-0.14 -0.12,-0.095 -0.19,-0.24 -0.065,-0.145 -0.065,-0.345 0,-0.22 0.075,-0.36 0.08,-0.145 0.2,-0.23 0.125,-0.085 0.28,-0.125 0.16,-0.045 0.32,-0.07 0.16,-0.025 0.315,-0.04 0.155,-0.015 0.2750004,-0.045 0.12,-0.03 0.19,-0.085 0.07,-0.06 0.065,-0.17 0,-0.115 -0.04,-0.18 -0.035,-0.07 -0.1,-0.105 -0.06,-0.04 -0.145,-0.05 -0.08,-0.015 -0.1750004,-0.015 -0.21,0 -0.33,0.09 -0.12,0.09 -0.14,0.3 l -0.71,0 z m 1.6400004,0.525 q -0.045,0.04 -0.115,0.065 -0.065,0.02 -0.145,0.035 -0.075,0.015 -0.1600004,0.025 -0.085,0.01 -0.17,0.025 -0.08,0.015 -0.16,0.04 -0.075,0.025 -0.135,0.07 -0.055,0.04 -0.09,0.105 -0.035,0.065 -0.035,0.165 0,0.095 0.035,0.16 0.035,0.065 0.095,0.105 0.06,0.035 0.14,0.05 0.08,0.015 0.165,0.015 0.21,0 0.3250004,-0.07 0.115,-0.07 0.17,-0.165 0.055,-0.1 0.065,-0.2 0.015,-0.1 0.015,-0.16 l 0,-0.265 z"
           style="font-weight:bold;font-size:5px;font-family:'Helvetica Neue', Helvetica, Arial-Unicode, Arial, Sans-serif;fill:#a25200;fill-opacity:1"
           id="path4287"
           inkscape:connector-curvature="0" />
        <path
           d="m 12.478594,112.415 0,-0.775 -0.71,0 0,0.775 -0.43,0 0,0.475 0.43,0 0,1.525 q 0,0.195 0.065,0.315 0.065,0.12 0.175,0.185 0.115,0.065 0.26,0.085 0.15,0.025 0.315,0.025 0.105,0 0.215,-0.005 0.11,-0.005 0.2,-0.02 l 0,-0.55 q -0.05,0.01 -0.105,0.015 -0.055,0.005 -0.115,0.005 -0.18,0 -0.24,-0.06 -0.06,-0.06 -0.06,-0.24 l 0,-1.28 0.52,0 0,-0.475 -0.52,0 z"
           style="font-weight:bold;font-size:5px;font-family:'Helvetica Neue', Helvetica, Arial-Unicode, Arial, Sans-serif;fill:#a25200;fill-opacity:1"
           id="path4289"
           inkscape:connector-curvature="0" />
        <path
           d="m 15.076406,113.43 -1.155,0 q 0.005,-0.075 0.03,-0.17 0.03,-0.095 0.095,-0.18 0.07,-0.085 0.18,-0.14 0.115,-0.06 0.285,-0.06 0.26,0 0.385,0.14 0.13,0.14 0.18,0.41 z m -1.155,0.45 1.865,0 q 0.02,-0.3 -0.05,-0.575 -0.07,-0.275 -0.23,-0.49 -0.155,-0.215 -0.4,-0.34 -0.245,-0.13 -0.575,-0.13 -0.295,0 -0.54,0.105 -0.24,0.105 -0.415,0.29 -0.175,0.18 -0.27,0.43 -0.095,0.25 -0.095,0.54 0,0.3 0.09,0.55 0.095,0.25 0.265,0.43 0.17,0.18 0.415,0.28 0.245,0.095 0.55,0.095 0.44,0 0.75,-0.2 0.31,-0.2 0.46,-0.665 l -0.625,0 q -0.035,0.12 -0.19,0.23 -0.155,0.105 -0.37,0.105 -0.3,0 -0.46,-0.155 -0.16,-0.155 -0.175,-0.5 z"
           style="font-weight:bold;font-size:5px;font-family:'Helvetica Neue', Helvetica, Arial-Unicode, Arial, Sans-serif;fill:#a25200;fill-opacity:1"
           id="path4291"
           inkscape:connector-curvature="0" />
        <path
           d="m 18.0425,113.7 q 0,0.16 -0.03,0.31 -0.03,0.15 -0.1,0.27 -0.07,0.115 -0.19,0.185 -0.115,0.07 -0.29,0.07 -0.165,0 -0.285,-0.07 -0.115,-0.075 -0.195,-0.19 -0.075,-0.12 -0.11,-0.27 -0.035,-0.15 -0.035,-0.3 0,-0.16 0.03,-0.305 0.035,-0.15 0.105,-0.265 0.075,-0.115 0.195,-0.185 0.12,-0.07 0.295,-0.07 0.175,0 0.29,0.07 0.115,0.07 0.185,0.185 0.075,0.11 0.105,0.26 0.03,0.145 0.03,0.305 z m 0.01,0.97 0,0.33 0.675,0 0,-3.57 -0.71,0 0,1.3 -0.01,0 q -0.12,-0.19 -0.33,-0.285 -0.205,-0.1 -0.435,-0.1 -0.285,0 -0.5,0.115 -0.215,0.11 -0.36,0.295 -0.14,0.185 -0.215,0.43 -0.07,0.24 -0.07,0.5 0,0.27 0.07,0.52 0.075,0.25 0.215,0.445 0.145,0.19 0.365,0.305 0.22,0.11 0.51,0.11 0.255,0 0.455,-0.09 0.205,-0.095 0.33,-0.305 l 0.01,0 z"
           style="font-weight:bold;font-size:5px;font-family:'Helvetica Neue', Helvetica, Arial-Unicode, Arial, Sans-serif;fill:#a25200;fill-opacity:1"
           id="path4293"
           inkscape:connector-curvature="0" />
        <path
           d="m 22.536094,113.71 q 0,0.16 -0.035,0.31 -0.035,0.15 -0.11,0.265 -0.075,0.115 -0.19,0.185 -0.11,0.065 -0.27,0.065 -0.155,0 -0.27,-0.065 -0.115,-0.07 -0.19,-0.185 -0.075,-0.115 -0.11,-0.265 -0.035,-0.15 -0.035,-0.31 0,-0.165 0.035,-0.315 0.035,-0.15 0.11,-0.265 0.075,-0.115 0.19,-0.18 0.115,-0.07 0.27,-0.07 0.16,0 0.27,0.07 0.115,0.065 0.19,0.18 0.075,0.115 0.11,0.265 0.035,0.15 0.035,0.315 z m -1.895,-2.28 0,3.57 0.675,0 0,-0.33 0.01,0 q 0.115,0.215 0.34,0.305 0.225,0.09 0.51,0.09 0.195,0 0.385,-0.08 0.19,-0.08 0.34,-0.245 0.155,-0.165 0.25,-0.42 0.095,-0.26 0.095,-0.615 0,-0.355 -0.095,-0.61 -0.095,-0.26 -0.25,-0.425 -0.15,-0.165 -0.34,-0.245 -0.19,-0.08 -0.385,-0.08 -0.24,0 -0.465,0.095 -0.22,0.09 -0.35,0.29 l -0.01,0 0,-1.3 -0.71,0 z"
           style="font-weight:bold;font-size:5px;font-family:'Helvetica Neue', Helvetica, Arial-Unicode, Arial, Sans-serif;fill:#a25200;fill-opacity:1"
           id="path4295"
           inkscape:connector-curvature="0" />
        <path
           d="m 24.972734,115.32 1.08,-2.905 -0.735,0 -0.565,1.77 -0.01,0 -0.585,-1.77 -0.755,0 0.905,2.425 q 0.03,0.075 0.03,0.16 0,0.115 -0.07,0.21 -0.065,0.095 -0.205,0.11 -0.105,0.005 -0.21,-0.005 -0.105,-0.01 -0.205,-0.02 l 0,0.585 q 0.11,0.01 0.215,0.015 0.11,0.01 0.22,0.01 0.365,0 0.57,-0.135 0.205,-0.135 0.32,-0.45 z"
           style="font-weight:bold;font-size:5px;font-family:'Helvetica Neue', Helvetica, Arial-Unicode, Arial, Sans-serif;fill:#a25200;fill-opacity:1"
           id="path4297"
           inkscape:connector-curvature="0" />
        <path
           d="m 29.417109,115 1.185,-3.57 -0.81,0 -0.805,2.51 -0.01,0 -0.795,-2.51 -0.805,0 1.155,3.57 0.885,0 z"
           style="font-weight:bold;font-size:5px;font-family:'Helvetica Neue', Helvetica, Arial-Unicode, Arial, Sans-serif;fill:#a25200;fill-opacity:1"
           id="path4299"
           inkscape:connector-curvature="0" />
        <path
           d="m 31.483398,112.015 0,-0.585 -0.71,0 0,0.585 0.71,0 z m -0.71,0.4 0,2.585 0.71,0 0,-2.585 -0.71,0 z"
           style="font-weight:bold;font-size:5px;font-family:'Helvetica Neue', Helvetica, Arial-Unicode, Arial, Sans-serif;fill:#a25200;fill-opacity:1"
           id="path4301"
           inkscape:connector-curvature="0" />
        <path
           d="m 32.947344,112.415 0,-0.775 -0.71,0 0,0.775 -0.43,0 0,0.475 0.43,0 0,1.525 q 0,0.195 0.065,0.315 0.065,0.12 0.175,0.185 0.115,0.065 0.26,0.085 0.15,0.025 0.315,0.025 0.105,0 0.215,-0.005 0.11,-0.005 0.2,-0.02 l 0,-0.55 q -0.05,0.01 -0.105,0.015 -0.055,0.005 -0.115,0.005 -0.18,0 -0.24,-0.06 -0.06,-0.06 -0.06,-0.24 l 0,-1.28 0.52,0 0,-0.475 -0.52,0 z"
           style="font-weight:bold;font-size:5px;font-family:'Helvetica Neue', Helvetica, Arial-Unicode, Arial, Sans-serif;fill:#a25200;fill-opacity:1"
           id="path4303"
           inkscape:connector-curvature="0" />
        <path
           d="m 33.775156,113.21 q 0.015,-0.25 0.125,-0.415 0.11,-0.165 0.28,-0.265 0.17,-0.1 0.38,-0.14 0.215,-0.045 0.43,-0.045 0.195,0 0.395,0.03 0.2,0.025 0.365,0.105 0.165,0.08 0.27,0.225 0.105,0.14 0.105,0.375 l 0,1.345 q 0,0.175 0.02,0.335 0.02,0.16 0.07,0.24 l -0.72,0 q -0.02,-0.06 -0.035,-0.12 -0.01,-0.065 -0.015,-0.13 -0.17,0.175 -0.4,0.245 -0.23,0.07 -0.47,0.07 -0.185,0 -0.345,-0.045 -0.16,-0.045 -0.28,-0.14 -0.12,-0.095 -0.19,-0.24 -0.065,-0.145 -0.065,-0.345 0,-0.22 0.075,-0.36 0.08,-0.145 0.2,-0.23 0.125,-0.085 0.28,-0.125 0.16,-0.045 0.32,-0.07 0.16,-0.025 0.315,-0.04 0.155,-0.015 0.275,-0.045 0.12,-0.03 0.19,-0.085 0.07,-0.06 0.065,-0.17 0,-0.115 -0.04,-0.18 -0.035,-0.07 -0.1,-0.105 -0.06,-0.04 -0.145,-0.05 -0.08,-0.015 -0.175,-0.015 -0.21,0 -0.33,0.09 -0.12,0.09 -0.14,0.3 l -0.71,0 z m 1.64,0.525 q -0.045,0.04 -0.115,0.065 -0.065,0.02 -0.145,0.035 -0.075,0.015 -0.16,0.025 -0.085,0.01 -0.17,0.025 -0.08,0.015 -0.16,0.04 -0.075,0.025 -0.135,0.07 -0.055,0.04 -0.09,0.105 -0.035,0.065 -0.035,0.165 0,0.095 0.035,0.16 0.035,0.065 0.095,0.105 0.06,0.035 0.14,0.05 0.08,0.015 0.165,0.015 0.21,0 0.325,-0.07 0.115,-0.07 0.17,-0.165 0.055,-0.1 0.065,-0.2 0.015,-0.1 0.015,-0.16 l 0,-0.265 z"
           style="font-weight:bold;font-size:5px;font-family:'Helvetica Neue', Helvetica, Arial-Unicode, Arial, Sans-serif;fill:#a25200;fill-opacity:1"
           id="path4305"
           inkscape:connector-curvature="0" />
        <path
           d="m 36.686484,111.43 0,3.57 0.71,0 0,-3.57 -0.71,0 z"
           style="font-weight:bold;font-size:5px;font-family:'Helvetica Neue', Helvetica, Arial-Unicode, Arial, Sans-serif;fill:#a25200;fill-opacity:1"
           id="path4307"
           inkscape:connector-curvature="0" />
        <path
           d="m 38.685547,112.015 0,-0.585 -0.71,0 0,0.585 0.71,0 z m -0.71,0.4 0,2.585 0.71,0 0,-2.585 -0.71,0 z"
           style="font-weight:bold;font-size:5px;font-family:'Helvetica Neue', Helvetica, Arial-Unicode, Arial, Sans-serif;fill:#a25200;fill-opacity:1"
           id="path4309"
           inkscape:connector-curvature="0" />
        <path
           d="m 40.519609,115.32 1.08,-2.905 -0.735,0 -0.565,1.77 -0.01,0 -0.585,-1.77 -0.755,0 0.905,2.425 q 0.03,0.075 0.03,0.16 0,0.115 -0.07,0.21 -0.065,0.095 -0.205,0.11 -0.105,0.005 -0.21,-0.005 -0.105,-0.01 -0.205,-0.02 l 0,0.585 q 0.11,0.01 0.215,0.015 0.11,0.01 0.22,0.01 0.365,0 0.57,-0.135 0.205,-0.135 0.32,-0.45 z"
           style="font-weight:bold;font-size:5px;font-family:'Helvetica Neue', Helvetica, Arial-Unicode, Arial, Sans-serif;fill:#a25200;fill-opacity:1"
           id="path4311"
           inkscape:connector-curvature="0" />
        <path
           d="m 45.883984,114.595 0.08,0.405 0.5,0 0,-1.93 -1.5,0 0,0.585 0.79,0 q -0.035,0.375 -0.25,0.575 -0.21,0.195 -0.6,0.195 -0.265,0 -0.45,-0.1 -0.185,-0.105 -0.3,-0.275 -0.115,-0.17 -0.17,-0.38 -0.05,-0.215 -0.05,-0.44 0,-0.235 0.05,-0.455 0.055,-0.22 0.17,-0.39 0.115,-0.175 0.3,-0.275 0.185,-0.105 0.45,-0.105 0.285,0 0.485,0.15 0.2,0.15 0.27,0.45 l 0.75,0 q -0.03,-0.305 -0.165,-0.54 -0.135,-0.235 -0.345,-0.395 -0.205,-0.16 -0.465,-0.24 -0.255,-0.085 -0.53,-0.085 -0.41,0 -0.74,0.145 -0.325,0.145 -0.55,0.4 -0.225,0.255 -0.345,0.6 -0.12,0.34 -0.12,0.74 0,0.39 0.12,0.73 0.12,0.335 0.345,0.585 0.225,0.25 0.55,0.395 0.33,0.14 0.74,0.14 0.26,0 0.515,-0.105 0.255,-0.11 0.465,-0.38 z"
           style="font-weight:bold;font-size:5px;font-family:'Helvetica Neue', Helvetica, Arial-Unicode, Arial, Sans-serif;fill:#a25200;fill-opacity:1"
           id="path4313"
           inkscape:connector-curvature="0" />
        <path
           d="m 47.657812,113.71 q 0,-0.155 0.03,-0.305 0.03,-0.15 0.1,-0.265 0.075,-0.115 0.195001,-0.185 0.119999,-0.075 0.299999,-0.075 0.18,0 0.300001,0.075 0.125,0.07 0.195,0.185 0.075,0.115 0.104999,0.265 0.03,0.15 0.03,0.305 0,0.155 -0.03,0.305 -0.03,0.145 -0.104999,0.265 -0.07,0.115 -0.195,0.185 -0.120001,0.07 -0.300001,0.07 -0.18,0 -0.299999,-0.07 -0.120001,-0.07 -0.195001,-0.185 -0.07,-0.12 -0.1,-0.265 -0.03,-0.15 -0.03,-0.305 z m -0.71,0 q 0,0.31 0.095,0.56 0.095,0.25 0.27,0.43 0.175,0.175 0.420001,0.27 0.244999,0.095 0.549999,0.095 0.305,0 0.550001,-0.095 0.25,-0.095 0.424999,-0.27 0.175,-0.18 0.270001,-0.43 0.095,-0.25 0.095,-0.56 0,-0.31 -0.095,-0.56 -0.095,-0.255 -0.270001,-0.43 -0.174999,-0.18 -0.424999,-0.275 -0.245001,-0.1 -0.550001,-0.1 -0.305,0 -0.549999,0.1 -0.245001,0.095 -0.420001,0.275 -0.174999,0.175 -0.27,0.43 -0.095,0.25 -0.095,0.56 z"
           style="font-weight:bold;font-size:5px;font-family:'Helvetica Neue', Helvetica, Arial-Unicode, Arial, Sans-serif;fill:#a25200;fill-opacity:1"
           id="path4315"
           inkscape:connector-curvature="0" />
        <path
           d="m 50.074688,112.415 0,2.585 0.709999,0 0,-1.165 q 0,-0.175 0.035,-0.325 0.035,-0.15 0.115001,-0.26 0.085,-0.115 0.22,-0.18 0.134999,-0.065 0.329999,-0.065 0.065,0 0.135,0.01 0.07,0.005 0.120001,0.015 l 0,-0.66 q -0.085,-0.025 -0.155001,-0.025 -0.134999,0 -0.259999,0.04 -0.125,0.04 -0.235001,0.115 -0.11,0.07 -0.194999,0.175 -0.085,0.1 -0.135001,0.22 l -0.01,0 0,-0.48 -0.674999,0 z"
           style="font-weight:bold;font-size:5px;font-family:'Helvetica Neue', Helvetica, Arial-Unicode, Arial, Sans-serif;fill:#a25200;fill-opacity:1"
           id="path4317"
           inkscape:connector-curvature="0" />
        <path
           d="m 53.922812,113.71 q 0,0.16 -0.035,0.31 -0.035,0.15 -0.11,0.265 -0.075,0.115 -0.190001,0.185 -0.11,0.065 -0.269999,0.065 -0.155001,0 -0.270001,-0.065 -0.115,-0.07 -0.189999,-0.185 -0.075,-0.115 -0.11,-0.265 -0.035,-0.15 -0.035,-0.31 0,-0.165 0.035,-0.315 0.035,-0.15 0.11,-0.265 0.075,-0.115 0.189999,-0.18 0.115,-0.07 0.270001,-0.07 0.159999,0 0.269999,0.07 0.115,0.065 0.190001,0.18 0.075,0.115 0.11,0.265 0.035,0.15 0.035,0.315 z m -1.894999,-2.28 0,3.57 0.674999,0 0,-0.33 0.01,0 q 0.115,0.215 0.340001,0.305 0.225,0.09 0.509999,0.09 0.195,0 0.385,-0.08 0.190001,-0.08 0.34,-0.245 0.155001,-0.165 0.25,-0.42 0.095,-0.26 0.095,-0.615 0,-0.355 -0.095,-0.61 -0.095,-0.26 -0.25,-0.425 -0.149999,-0.165 -0.34,-0.245 -0.19,-0.08 -0.385,-0.08 -0.24,0 -0.464999,0.095 -0.220001,0.09 -0.35,0.29 l -0.01,0 0,-1.3 -0.709999,0 z"
           style="font-weight:bold;font-size:5px;font-family:'Helvetica Neue', Helvetica, Arial-Unicode, Arial, Sans-serif;fill:#a25200;fill-opacity:1"
           id="path4319"
           inkscape:connector-curvature="0" />
        <path
           d="m 55.054453,113.21 q 0.015,-0.25 0.125,-0.415 0.11,-0.165 0.28,-0.265 0.17,-0.1 0.38,-0.14 0.215,-0.045 0.43,-0.045 0.195,0 0.395,0.03 0.2,0.025 0.365,0.105 0.165,0.08 0.27,0.225 0.105,0.14 0.105,0.375 l 0,1.345 q 0,0.175 0.02,0.335 0.02,0.16 0.07,0.24 l -0.72,0 q -0.02,-0.06 -0.035,-0.12 -0.01,-0.065 -0.015,-0.13 -0.17,0.175 -0.4,0.245 -0.23,0.07 -0.47,0.07 -0.185,0 -0.345,-0.045 -0.16,-0.045 -0.28,-0.14 -0.12,-0.095 -0.19,-0.24 -0.065,-0.145 -0.065,-0.345 0,-0.22 0.075,-0.36 0.08,-0.145 0.2,-0.23 0.125,-0.085 0.28,-0.125 0.16,-0.045 0.32,-0.07 0.16,-0.025 0.315,-0.04 0.155,-0.015 0.275,-0.045 0.12,-0.03 0.19,-0.085 0.07,-0.06 0.065,-0.17 0,-0.115 -0.04,-0.18 -0.035,-0.07 -0.1,-0.105 -0.06,-0.04 -0.145,-0.05 -0.08,-0.015 -0.175,-0.015 -0.21,0 -0.33,0.09 -0.12,0.09 -0.14,0.3 l -0.71,0 z m 1.64,0.525 q -0.045,0.04 -0.115,0.065 -0.065,0.02 -0.145,0.035 -0.075,0.015 -0.16,0.025 -0.085,0.01 -0.17,0.025 -0.08,0.015 -0.16,0.04 -0.075,0.025 -0.135,0.07 -0.055,0.04 -0.09,0.105 -0.035,0.065 -0.035,0.165 0,0.095 0.035,0.16 0.035,0.065 0.095,0.105 0.06,0.035 0.14,0.05 0.08,0.015 0.165,0.015 0.21,0 0.325,-0.07 0.115,-0.07 0.17,-0.165 0.055,-0.1 0.065,-0.2 0.015,-0.1 0.015,-0.16 l 0,-0.265 z"
           style="font-weight:bold;font-size:5px;font-family:'Helvetica Neue', Helvetica, Arial-Unicode, Arial, Sans-serif;fill:#a25200;fill-opacity:1"
           id="path4321"
           inkscape:connector-curvature="0" />
        <path
           d="m 59.705781,113.325 0.695,0 q -0.015,-0.25 -0.12,-0.43 -0.105,-0.185 -0.275,-0.305 -0.165,-0.125 -0.38,-0.185 -0.21,-0.06 -0.44,-0.06 -0.315,0 -0.56,0.105 -0.245,0.105 -0.415,0.295 -0.17,0.185 -0.26,0.445 -0.085,0.255 -0.085,0.555 0,0.29 0.095,0.535 0.095,0.24 0.265,0.415 0.17,0.175 0.41,0.275 0.245,0.095 0.535,0.095 0.515,0 0.845,-0.27 0.33,-0.27 0.4,-0.785 l -0.685,0 q -0.035,0.24 -0.175,0.385 -0.135,0.14 -0.39,0.14 -0.165,0 -0.28,-0.075 -0.115,-0.075 -0.185,-0.19 -0.065,-0.12 -0.095,-0.265 -0.03,-0.145 -0.03,-0.285 0,-0.145 0.03,-0.29 0.03,-0.15 0.1,-0.27 0.075,-0.125 0.19,-0.2 0.115,-0.08 0.285,-0.08 0.455,0 0.525,0.445 z"
           style="font-weight:bold;font-size:5px;font-family:'Helvetica Neue', Helvetica, Arial-Unicode, Arial, Sans-serif;fill:#a25200;fill-opacity:1"
           id="path4323"
           inkscape:connector-curvature="0" />
        <path
           d="m 60.807109,111.43 0,3.57 0.71,0 0,-1.355 q 0,-0.395 0.13,-0.565 0.13,-0.175 0.42,-0.175 0.255,0 0.355,0.16 0.1,0.155 0.1,0.475 l 0,1.46 0.71,0 0,-1.59 q 0,-0.24 -0.045,-0.435 -0.04,-0.2 -0.145,-0.335 -0.105,-0.14 -0.29,-0.215 -0.18,-0.08 -0.465,-0.08 -0.2,0 -0.41,0.105 -0.21,0.1 -0.345,0.325 l -0.015,0 0,-1.345 -0.71,0 z"
           style="font-weight:bold;font-size:5px;font-family:'Helvetica Neue', Helvetica, Arial-Unicode, Arial, Sans-serif;fill:#a25200;fill-opacity:1"
           id="path4325"
           inkscape:connector-curvature="0" />
        <path
           d="m 65.515859,113.43 -1.155,0 q 0.005,-0.075 0.03,-0.17 0.03,-0.095 0.095,-0.18 0.07,-0.085 0.18,-0.14 0.115,-0.06 0.285,-0.06 0.26,0 0.385,0.14 0.13,0.14 0.18,0.41 z m -1.155,0.45 1.865,0 q 0.02,-0.3 -0.05,-0.575 -0.07,-0.275 -0.23,-0.49 -0.155,-0.215 -0.4,-0.34 -0.245,-0.13 -0.575,-0.13 -0.295,0 -0.54,0.105 -0.24,0.105 -0.415,0.29 -0.175,0.18 -0.27,0.43 -0.095,0.25 -0.095,0.54 0,0.3 0.09,0.55 0.095,0.25 0.265,0.43 0.17,0.18 0.415,0.28 0.245,0.095 0.55,0.095 0.44,0 0.75,-0.2 0.31,-0.2 0.46,-0.665 l -0.625,0 q -0.035,0.12 -0.19,0.23 -0.155,0.105 -0.37,0.105 -0.3,0 -0.46,-0.155 -0.16,-0.155 -0.175,-0.5 z"
           style="font-weight:bold;font-size:5px;font-family:'Helvetica Neue', Helvetica, Arial-Unicode, Arial, Sans-serif;fill:#a25200;fill-opacity:1"
           id="path4327"
           inkscape:connector-curvature="0" />
        <path
           d="m 68.076953,115 0.875,-2.585 -0.705,0 -0.545,1.765 -0.01,0 -0.545,-1.765 -0.745,0 0.885,2.585 0.79,0 z"
           style="font-weight:bold;font-size:5px;font-family:'Helvetica Neue', Helvetica, Arial-Unicode, Arial, Sans-serif;fill:#a25200;fill-opacity:1"
           id="path4329"
           inkscape:connector-curvature="0" />
      </g>
      <g
         style="font-weight:bold;font-size:5px;font-family:'Helvetica Neue', Helvetica, Arial-Unicode, Arial, Sans-serif;fill:#a25200;fill-opacity:1"
         id="text4258">
        <path
           d="m 0.425,117.89 0,2.11 0.71,0 0,-2.11 0.49,0 0,-0.475 -0.49,0 0,-0.155 q 0,-0.16 0.06,-0.225 0.065,-0.07 0.21,-0.07 0.135,0 0.26,0.015 l 0,-0.53 q -0.09,-0.005 -0.185,-0.01 -0.095,-0.01 -0.19,-0.01 -0.435,0 -0.65,0.22 -0.215,0.22 -0.215,0.565 l 0,0.2 -0.425,0 0,0.475 0.425,0 z"
           style="font-weight:bold;font-size:5px;font-family:'Helvetica Neue', Helvetica, Arial-Unicode, Arial, Sans-serif;fill:#a25200;fill-opacity:1"
           id="path4332"
           inkscape:connector-curvature="0" />
        <path
           d="m 1.9399219,117.415 0,2.585 0.71,0 0,-1.165 q 0,-0.175 0.035,-0.325 0.035,-0.15 0.115,-0.26 0.085,-0.115 0.22,-0.18 0.135,-0.065 0.33,-0.065 0.065,0 0.135,0.01 0.07,0.005 0.12,0.015 l 0,-0.66 q -0.085,-0.025 -0.155,-0.025 -0.135,0 -0.26,0.04 -0.125,0.04 -0.235,0.115 -0.11,0.07 -0.195,0.175 -0.085,0.1 -0.135,0.22 l -0.01,0 0,-0.48 -0.675,0 z"
           style="font-weight:bold;font-size:5px;font-family:'Helvetica Neue', Helvetica, Arial-Unicode, Arial, Sans-serif;fill:#a25200;fill-opacity:1"
           id="path4334"
           inkscape:connector-curvature="0" />
        <path
           d="m 4.4400391,118.71 q 0,-0.155 0.03,-0.305 0.03,-0.15 0.1,-0.265 0.075,-0.115 0.195,-0.185 0.12,-0.075 0.3,-0.075 0.18,0 0.3,0.075 0.125,0.07 0.195,0.185 0.075,0.115 0.105,0.265 0.03,0.15 0.03,0.305 0,0.155 -0.03,0.305 -0.03,0.145 -0.105,0.265 -0.07,0.115 -0.195,0.185 -0.12,0.07 -0.3,0.07 -0.18,0 -0.3,-0.07 -0.12,-0.07 -0.195,-0.185 -0.07,-0.12 -0.1,-0.265 -0.03,-0.15 -0.03,-0.305 z m -0.71,0 q 0,0.31 0.095,0.56 0.095,0.25 0.27,0.43 0.175,0.175 0.42,0.27 0.245,0.095 0.55,0.095 0.305,0 0.55,-0.095 0.25,-0.095 0.425,-0.27 0.175,-0.18 0.27,-0.43 0.095,-0.25 0.095,-0.56 0,-0.31 -0.095,-0.56 -0.095,-0.255 -0.27,-0.43 -0.175,-0.18 -0.425,-0.275 -0.245,-0.1 -0.55,-0.1 -0.305,0 -0.55,0.1 -0.245,0.095 -0.42,0.275 -0.175,0.175 -0.27,0.43 -0.095,0.25 -0.095,0.56 z"
           style="font-weight:bold;font-size:5px;font-family:'Helvetica Neue', Helvetica, Arial-Unicode, Arial, Sans-serif;fill:#a25200;fill-opacity:1"
           id="path4336"
           inkscape:connector-curvature="0" />
        <path
           d="m 6.8817969,117.415 0,2.585 0.71,0 0,-1.5 q 0,-0.19 0.055,-0.305 0.055,-0.12 0.13,-0.18 0.08,-0.065 0.16,-0.085 0.085,-0.025 0.135,-0.025 0.17,0 0.255,0.06 0.09,0.055 0.125,0.15 0.04,0.095 0.045,0.21 0.005,0.11 0.005,0.225 l 0,1.45 0.71,0 0,-1.44 q 0,-0.12 0.015,-0.235 0.02,-0.12 0.07,-0.21 0.055,-0.095 0.145,-0.15 0.095,-0.06 0.245,-0.06 0.15,0 0.235,0.05 0.09,0.05 0.1350001,0.135 0.045,0.085 0.055,0.2 0.01,0.115 0.01,0.245 l 0,1.465 0.71,0 0,-1.73 q 0,-0.25 -0.07,-0.425 -0.07,-0.18 -0.195,-0.29 -0.125,-0.11 -0.3,-0.16 -0.175,-0.05 -0.3800001,-0.05 -0.27,0 -0.47,0.13 -0.195,0.13 -0.31,0.3 -0.105,-0.24 -0.31,-0.335 -0.2,-0.095 -0.445,-0.095 -0.255,0 -0.455,0.11 -0.195,0.11 -0.335,0.31 l -0.01,0 0,-0.35 -0.67,0 z"
           style="font-weight:bold;font-size:5px;font-family:'Helvetica Neue', Helvetica, Arial-Unicode, Arial, Sans-serif;fill:#a25200;fill-opacity:1"
           id="path4338"
           inkscape:connector-curvature="0" />
        <path
           d="m 13.679766,117.415 0,-0.775 -0.71,0 0,0.775 -0.43,0 0,0.475 0.43,0 0,1.525 q 0,0.195 0.065,0.315 0.065,0.12 0.175,0.185 0.115,0.065 0.26,0.085 0.15,0.025 0.315,0.025 0.105,0 0.215,-0.005 0.11,-0.005 0.2,-0.02 l 0,-0.55 q -0.05,0.01 -0.105,0.015 -0.055,0.005 -0.115,0.005 -0.18,0 -0.24,-0.06 -0.06,-0.06 -0.06,-0.24 l 0,-1.28 0.52,0 0,-0.475 -0.52,0 z"
           style="font-weight:bold;font-size:5px;font-family:'Helvetica Neue', Helvetica, Arial-Unicode, Arial, Sans-serif;fill:#a25200;fill-opacity:1"
           id="path4340"
           inkscape:connector-curvature="0" />
        <path
           d="m 14.537578,116.43 0,3.57 0.71,0 0,-1.355 q 0,-0.395 0.13,-0.565 0.13,-0.175 0.42,-0.175 0.255,0 0.355,0.16 0.1,0.155 0.1,0.475 l 0,1.46 0.71,0 0,-1.59 q 0,-0.24 -0.045,-0.435 -0.04,-0.2 -0.145,-0.335 -0.105,-0.14 -0.29,-0.215 -0.18,-0.08 -0.465,-0.08 -0.2,0 -0.41,0.105 -0.21,0.1 -0.345,0.325 l -0.015,0 0,-1.345 -0.71,0 z"
           style="font-weight:bold;font-size:5px;font-family:'Helvetica Neue', Helvetica, Arial-Unicode, Arial, Sans-serif;fill:#a25200;fill-opacity:1"
           id="path4342"
           inkscape:connector-curvature="0" />
        <path
           d="m 19.246328,118.43 -1.155,0 q 0.005,-0.075 0.03,-0.17 0.03,-0.095 0.095,-0.18 0.07,-0.085 0.18,-0.14 0.115,-0.06 0.285,-0.06 0.26,0 0.385,0.14 0.13,0.14 0.18,0.41 z m -1.155,0.45 1.865,0 q 0.02,-0.3 -0.05,-0.575 -0.07,-0.275 -0.23,-0.49 -0.155,-0.215 -0.4,-0.34 -0.245,-0.13 -0.575,-0.13 -0.295,0 -0.54,0.105 -0.24,0.105 -0.415,0.29 -0.175,0.18 -0.27,0.43 -0.095,0.25 -0.095,0.54 0,0.3 0.09,0.55 0.095,0.25 0.265,0.43 0.17,0.18 0.415,0.28 0.245,0.095 0.55,0.095 0.44,0 0.75,-0.2 0.31,-0.2 0.46,-0.665 l -0.625,0 q -0.035,0.12 -0.19,0.23 -0.155,0.105 -0.37,0.105 -0.3,0 -0.46,-0.155 -0.16,-0.155 -0.175,-0.5 z"
           style="font-weight:bold;font-size:5px;font-family:'Helvetica Neue', Helvetica, Arial-Unicode, Arial, Sans-serif;fill:#a25200;fill-opacity:1"
           id="path4344"
           inkscape:connector-curvature="0" />
        <path
           d="m 21.839141,116.43 0,3.57 0.735,0 0,-2.39 0.01,0 1.485,2.39 0.785,0 0,-3.57 -0.735,0 0,2.395 -0.01,0 -1.49,-2.395 -0.78,0 z"
           style="font-weight:bold;font-size:5px;font-family:'Helvetica Neue', Helvetica, Arial-Unicode, Arial, Sans-serif;fill:#a25200;fill-opacity:1"
           id="path4346"
           inkscape:connector-curvature="0" />
        <path
           d="m 26.095312,118.71 q 0,-0.155 0.03,-0.305 0.03,-0.15 0.1,-0.265 0.075,-0.115 0.195001,-0.185 0.119999,-0.075 0.299999,-0.075 0.18,0 0.3,0.075 0.125,0.07 0.195,0.185 0.075,0.115 0.105,0.265 0.03,0.15 0.03,0.305 0,0.155 -0.03,0.305 -0.03,0.145 -0.105,0.265 -0.07,0.115 -0.195,0.185 -0.12,0.07 -0.3,0.07 -0.18,0 -0.299999,-0.07 -0.120001,-0.07 -0.195001,-0.185 -0.07,-0.12 -0.1,-0.265 -0.03,-0.15 -0.03,-0.305 z m -0.709999,0 q 0,0.31 0.095,0.56 0.095,0.25 0.27,0.43 0.175,0.175 0.420001,0.27 0.244999,0.095 0.549999,0.095 0.305,0 0.55,-0.095 0.25,-0.095 0.425,-0.27 0.175,-0.18 0.27,-0.43 0.095,-0.25 0.095,-0.56 0,-0.31 -0.095,-0.56 -0.095,-0.255 -0.27,-0.43 -0.175,-0.18 -0.425,-0.275 -0.245,-0.1 -0.55,-0.1 -0.305,0 -0.549999,0.1 -0.245001,0.095 -0.420001,0.275 -0.175,0.175 -0.27,0.43 -0.095,0.25 -0.095,0.56 z"
           style="font-weight:bold;font-size:5px;font-family:'Helvetica Neue', Helvetica, Arial-Unicode, Arial, Sans-serif;fill:#a25200;fill-opacity:1"
           id="path4348"
           inkscape:connector-curvature="0" />
        <path
           d="m 30.937187,120 0,-2.585 -0.71,0 0,1.355 q 0,0.395 -0.13,0.57 -0.129999,0.17 -0.42,0.17 -0.255,0 -0.355,-0.155 -0.1,-0.16 -0.1,-0.48 l 0,-1.46 -0.71,0 0,1.59 q 0,0.24 0.04,0.44 0.045,0.195 0.15,0.335 0.105001,0.135 0.285,0.21 0.185,0.075 0.47,0.075 0.225001,0 0.44,-0.1 0.215,-0.1 0.35,-0.325 l 0.015,0 0,0.36 0.675,0 z"
           style="font-weight:bold;font-size:5px;font-family:'Helvetica Neue', Helvetica, Arial-Unicode, Arial, Sans-serif;fill:#a25200;fill-opacity:1"
           id="path4350"
           inkscape:connector-curvature="0" />
        <path
           d="m 31.480937,117.415 0,2.585 0.71,0 0,-1.355 q 0,-0.395 0.13,-0.565 0.130001,-0.175 0.42,-0.175 0.255,0 0.355,0.16 0.1,0.155 0.1,0.475 l 0,1.46 0.71,0 0,-1.59 q 0,-0.24 -0.045,-0.435 -0.04,-0.2 -0.144999,-0.335 -0.105001,-0.14 -0.29,-0.215 -0.180001,-0.08 -0.465001,-0.08 -0.225,0 -0.439999,0.105 -0.215001,0.1 -0.350001,0.325 l -0.015,0 0,-0.36 -0.675,0 z"
           style="font-weight:bold;font-size:5px;font-family:'Helvetica Neue', Helvetica, Arial-Unicode, Arial, Sans-serif;fill:#a25200;fill-opacity:1"
           id="path4352"
           inkscape:connector-curvature="0" />
        <path
           d="m 36.696406,118.11 0,-1.07 0.61,0 q 0.135,0 0.26,0.02 0.125,0.02 0.22,0.08 0.095,0.055 0.15,0.16 0.06,0.105 0.06,0.275 0,0.17 -0.06,0.275 -0.055,0.105 -0.15,0.165 -0.095,0.055 -0.22,0.075 -0.125,0.02 -0.26,0.02 l -0.61,0 z m -0.785,-1.68 0,3.57 0.785,0 0,-1.28 0.825,0 q 0.335,0 0.57,-0.095 0.235,-0.1 0.38,-0.26 0.15,-0.16 0.215,-0.365 0.07,-0.21 0.07,-0.425 0,-0.22 -0.07,-0.425 -0.065,-0.205 -0.215,-0.365 -0.145,-0.16 -0.38,-0.255 -0.235,-0.1 -0.57,-0.1 l -1.61,0 z"
           style="font-weight:bold;font-size:5px;font-family:'Helvetica Neue', Helvetica, Arial-Unicode, Arial, Sans-serif;fill:#a25200;fill-opacity:1"
           id="path4354"
           inkscape:connector-curvature="0" />
        <path
           d="m 39.166484,117.415 0,2.585 0.71,0 0,-1.165 q 0,-0.175 0.035,-0.325 0.035,-0.15 0.115,-0.26 0.085,-0.115 0.22,-0.18 0.135,-0.065 0.33,-0.065 0.065,0 0.135,0.01 0.07,0.005 0.12,0.015 l 0,-0.66 q -0.085,-0.025 -0.155,-0.025 -0.135,0 -0.26,0.04 -0.125,0.04 -0.235,0.115 -0.11,0.07 -0.195,0.175 -0.085,0.1 -0.135,0.22 l -0.01,0 0,-0.48 -0.675,0 z"
           style="font-weight:bold;font-size:5px;font-family:'Helvetica Neue', Helvetica, Arial-Unicode, Arial, Sans-serif;fill:#a25200;fill-opacity:1"
           id="path4356"
           inkscape:connector-curvature="0" />
        <path
           d="m 41.666602,118.71 q 0,-0.155 0.03,-0.305 0.03,-0.15 0.1,-0.265 0.075,-0.115 0.195,-0.185 0.12,-0.075 0.3,-0.075 0.18,0 0.3,0.075 0.125,0.07 0.195,0.185 0.075,0.115 0.105,0.265 0.03,0.15 0.03,0.305 0,0.155 -0.03,0.305 -0.03,0.145 -0.105,0.265 -0.07,0.115 -0.195,0.185 -0.12,0.07 -0.3,0.07 -0.18,0 -0.3,-0.07 -0.12,-0.07 -0.195,-0.185 -0.07,-0.12 -0.1,-0.265 -0.03,-0.15 -0.03,-0.305 z m -0.71,0 q 0,0.31 0.095,0.56 0.095,0.25 0.27,0.43 0.175,0.175 0.42,0.27 0.245,0.095 0.55,0.095 0.305,0 0.55,-0.095 0.25,-0.095 0.425,-0.27 0.175,-0.18 0.27,-0.43 0.095,-0.25 0.095,-0.56 0,-0.31 -0.095,-0.56 -0.095,-0.255 -0.27,-0.43 -0.175,-0.18 -0.425,-0.275 -0.245,-0.1 -0.55,-0.1 -0.305,0 -0.55,0.1 -0.245,0.095 -0.42,0.275 -0.175,0.175 -0.27,0.43 -0.095,0.25 -0.095,0.56 z"
           style="font-weight:bold;font-size:5px;font-family:'Helvetica Neue', Helvetica, Arial-Unicode, Arial, Sans-serif;fill:#a25200;fill-opacity:1"
           id="path4358"
           inkscape:connector-curvature="0" />
        <path
           d="m 44.863359,117.015 0,-0.585 -0.71,0 0,0.585 0.71,0 z m -1.135,3.285 0,0.585 q 0.1,0.02 0.225,0.02 0.27,0 0.445,-0.05 0.175,-0.045 0.275,-0.145 0.105,-0.095 0.145,-0.24 0.045,-0.145 0.045,-0.345 l 0,-2.71 -0.71,0 0,2.675 q 0,0.145 -0.085,0.185 -0.08,0.045 -0.19,0.045 -0.095,0 -0.15,-0.02 z"
           style="font-weight:bold;font-size:5px;font-family:'Helvetica Neue', Helvetica, Arial-Unicode, Arial, Sans-serif;fill:#a25200;fill-opacity:1"
           id="path4360"
           inkscape:connector-curvature="0" />
        <path
           d="m 47.215078,118.43 -1.155,0 q 0.005,-0.075 0.03,-0.17 0.03,-0.095 0.095,-0.18 0.07,-0.085 0.18,-0.14 0.115,-0.06 0.285,-0.06 0.26,0 0.385,0.14 0.13,0.14 0.18,0.41 z m -1.155,0.45 1.865,0 q 0.02,-0.3 -0.05,-0.575 -0.07,-0.275 -0.23,-0.49 -0.155,-0.215 -0.4,-0.34 -0.245,-0.13 -0.575,-0.13 -0.295,0 -0.54,0.105 -0.24,0.105 -0.415,0.29 -0.175,0.18 -0.27,0.43 -0.095,0.25 -0.095,0.54 0,0.3 0.09,0.55 0.095,0.25 0.265,0.43 0.17,0.18 0.415,0.28 0.245,0.095 0.55,0.095 0.44,0 0.75,-0.2 0.31,-0.2 0.46,-0.665 l -0.625,0 q -0.035,0.12 -0.19,0.23 -0.155,0.105 -0.37,0.105 -0.3,0 -0.46,-0.155 -0.16,-0.155 -0.175,-0.5 z"
           style="font-weight:bold;font-size:5px;font-family:'Helvetica Neue', Helvetica, Arial-Unicode, Arial, Sans-serif;fill:#a25200;fill-opacity:1"
           id="path4362"
           inkscape:connector-curvature="0" />
        <path
           d="m 50.106172,118.325 0.695,0 q -0.015,-0.25 -0.12,-0.43 -0.105,-0.185 -0.275,-0.305 -0.165,-0.125 -0.38,-0.185 -0.21,-0.06 -0.44,-0.06 -0.315,0 -0.56,0.105 -0.245,0.105 -0.415,0.295 -0.17,0.185 -0.26,0.445 -0.085,0.255 -0.085,0.555 0,0.29 0.095,0.535 0.095,0.24 0.265,0.415 0.17,0.175 0.41,0.275 0.245,0.095 0.535,0.095 0.515,0 0.845,-0.27 0.33,-0.27 0.4,-0.785 l -0.685,0 q -0.035,0.24 -0.175,0.385 -0.135,0.14 -0.39,0.14 -0.165,0 -0.28,-0.075 -0.115,-0.075 -0.185,-0.19 -0.065,-0.12 -0.095,-0.265 -0.03,-0.145 -0.03,-0.285 0,-0.145 0.03,-0.29 0.03,-0.15 0.1,-0.27 0.075,-0.125 0.19,-0.2 0.115,-0.08 0.285,-0.08 0.455,0 0.525,0.445 z"
           style="font-weight:bold;font-size:5px;font-family:'Helvetica Neue', Helvetica, Arial-Unicode, Arial, Sans-serif;fill:#a25200;fill-opacity:1"
           id="path4364"
           inkscape:connector-curvature="0" />
        <path
           d="m 52.1075,117.415 0,-0.775 -0.71,0 0,0.775 -0.43,0 0,0.475 0.43,0 0,1.525 q 0,0.195 0.065,0.315 0.065,0.12 0.175,0.185 0.115,0.065 0.26,0.085 0.15,0.025 0.315,0.025 0.105,0 0.215,-0.005 0.11,-0.005 0.2,-0.02 l 0,-0.55 q -0.05,0.01 -0.105,0.015 -0.055,0.005 -0.115,0.005 -0.18,0 -0.24,-0.06 -0.06,-0.06 -0.06,-0.24 l 0,-1.28 0.52,0 0,-0.475 -0.52,0 z"
           style="font-weight:bold;font-size:5px;font-family:'Helvetica Neue', Helvetica, Arial-Unicode, Arial, Sans-serif;fill:#a25200;fill-opacity:1"
           id="path4366"
           inkscape:connector-curvature="0" />
      </g>
    </g>
  </g>
</svg>
